<svg width="87" height="40" viewBox="0 0 87 40" fill="none" xmlns="http://www.w3.org/2000/svg">
<g opacity="0.8" clip-path="url(#clip0_1040_1206)" filter="url(#filter0_d_1040_1206)">
<path d="M6.18275 24.381V31.6294H4V15.6088H14.6667L14.955 17.1326C14.9138 17.1326 14.9138 17.1326 14.8726 17.0914C14.7902 17.0914 14.749 17.0914 14.749 17.0502C14.5843 16.8031 13.9665 16.556 12.9369 16.3089C11.8662 16.0618 10.4659 15.9382 8.69498 15.9382H6.18275V23.9691H13.1429V24.3398H6.18275V24.381Z" fill="black"/>
<path d="M22.2857 27.0991C22.2857 26.6872 22.2857 26.2754 22.2857 25.8636C22.2857 25.4105 22.2446 24.9987 22.2446 24.5457C22.0798 24.9163 21.7915 25.1634 21.3797 25.4105C20.9678 25.6165 20.5148 25.8224 20.0206 25.9871C19.5264 26.1518 18.991 26.3166 18.4556 26.4401C17.9202 26.6049 17.3848 26.7696 16.9318 27.0167C16.4788 27.2638 16.1081 27.5521 15.8198 27.9228C15.5316 28.2934 15.3668 28.7876 15.3668 29.3642C15.3668 30.0232 15.5316 30.4762 15.861 30.8056C16.1905 31.1351 16.6435 31.2999 17.2201 31.2999C17.7967 31.2999 18.538 31.1351 19.3205 30.7645C20.1442 30.3938 21.0502 29.8584 22.0386 29.1583C21.7915 29.4054 21.4621 29.6937 21.0502 30.0232C20.6384 30.3526 20.1442 30.6409 19.6088 30.9292C19.0734 31.2175 18.538 31.4646 18.0026 31.6293C17.426 31.8352 16.9318 31.9176 16.4788 31.9176C16.1081 31.9176 15.6963 31.8764 15.3256 31.7941C14.955 31.7117 14.5843 31.5881 14.2549 31.3822C13.9254 31.1763 13.6783 30.9292 13.4724 30.5997C13.2664 30.2703 13.1429 29.8172 13.1429 29.2818C13.1429 28.8288 13.2664 28.417 13.5135 28.0875C13.7606 27.758 14.0901 27.4697 14.502 27.2226C14.9138 26.9755 15.408 26.7696 15.9434 26.6049C16.4788 26.4401 17.0142 26.2754 17.5908 26.1518C18.1673 25.9871 18.7027 25.8636 19.2381 25.74C19.7735 25.6165 20.2677 25.4517 20.6796 25.287C21.1326 25.1222 21.4621 24.9163 21.7503 24.7104C21.9974 24.4633 22.1622 24.2162 22.2034 23.8867C22.121 23.3925 22.0386 22.9395 21.8739 22.4865C21.7503 22.0334 21.5444 21.6628 21.2973 21.3333C21.0502 21.0038 20.7207 20.7567 20.3501 20.5508C19.9794 20.3449 19.4852 20.3037 18.9498 20.3037C18.1262 20.3449 17.5084 20.4273 17.0966 20.592C16.6847 20.7567 16.3964 20.9627 16.1905 21.2098C15.9846 21.4569 15.9434 21.704 15.9434 21.9923C15.9434 22.2806 15.9434 22.5277 15.9434 22.7748C15.9434 23.063 15.861 23.269 15.6963 23.4337C15.5316 23.5984 15.3256 23.6396 15.0785 23.6396C14.8314 23.6396 14.5843 23.5573 14.3372 23.3513C14.0901 23.1454 14.0077 22.8983 14.0077 22.5688C14.0077 22.1158 14.2137 21.704 14.5843 21.3745C14.955 21.045 15.4492 20.7567 15.9846 20.5508C16.52 20.3449 17.0966 20.1802 17.6731 20.0978C18.2497 20.0154 18.7027 19.9742 19.0734 19.9742C20.2265 19.9742 21.1738 20.139 21.8739 20.4685C22.574 20.7979 23.1094 21.2509 23.4801 21.7863C23.8507 22.3217 24.0978 22.9807 24.2214 23.722C24.3449 24.4633 24.3861 25.2046 24.3861 26.0283V31.6705H22.3269V27.0991H22.2857Z" fill="black"/>
<path d="M28.9164 30.8057C29.1223 31.094 29.4517 31.2999 29.9048 31.4234C30.3578 31.547 30.8108 31.6293 31.3462 31.6293C31.8404 31.6293 32.3758 31.5882 32.87 31.4646C33.4054 31.3411 33.8584 31.1763 34.2703 30.9704C34.6821 30.7645 35.0528 30.5174 35.2999 30.1879C35.5882 29.8996 35.7117 29.529 35.7117 29.1171C35.7117 28.6229 35.5058 28.2111 35.0528 27.9228C34.5997 27.6345 34.0232 27.3874 33.3642 27.1815C32.7053 26.9755 31.964 26.7696 31.1815 26.6049C30.399 26.4402 29.6577 26.193 28.9987 25.9459C28.3398 25.6577 27.7632 25.3282 27.3102 24.8752C26.8571 24.4221 26.6512 23.8456 26.6512 23.1454C26.6512 22.4865 26.816 21.9511 27.1454 21.5393C27.4749 21.1274 27.9279 20.7979 28.4221 20.5508C28.9575 20.3037 29.4929 20.139 30.1107 20.0566C30.7284 19.9743 31.2638 19.9331 31.7992 19.9331C32.0463 19.9331 32.3758 19.9743 32.7877 20.0154C33.1995 20.0566 33.6113 20.1802 33.982 20.3449C34.3526 20.5097 34.7233 20.6744 35.0116 20.9215C35.2999 21.1686 35.4646 21.4981 35.4646 21.8687C35.4646 22.1158 35.3822 22.3217 35.1763 22.4865C34.9704 22.6512 34.7645 22.7336 34.5174 22.7336C34.1879 22.7336 33.982 22.6512 33.8173 22.5277C33.6525 22.4041 33.5701 22.2394 33.4878 22.0335C33.4054 21.8687 33.3642 21.6628 33.323 21.4569C33.2819 21.251 33.2407 21.0862 33.1171 20.9627C32.9112 20.7156 32.6641 20.5097 32.417 20.4273C32.1287 20.3449 31.7992 20.2625 31.4286 20.2625C31.0167 20.2625 30.6049 20.3037 30.1931 20.3861C29.74 20.4685 29.3694 20.592 28.9987 20.7568C28.6281 20.9215 28.3398 21.1686 28.1339 21.4157C27.8868 21.704 27.8044 22.0335 27.8044 22.4041C27.8044 22.7748 27.9279 23.1042 28.2162 23.3514C28.4633 23.5985 28.834 23.8044 29.2458 24.0103C29.6577 24.175 30.1519 24.3398 30.7284 24.4633C31.2638 24.5869 31.8404 24.7104 32.417 24.8752C32.9936 25.0399 33.5701 25.2046 34.1055 25.3694C34.6409 25.5341 35.1351 25.7812 35.5882 26.0283C36 26.2754 36.3707 26.6049 36.6178 26.9755C36.8649 27.3462 37.0296 27.8404 37.0296 28.3758C37.0296 28.9936 36.8649 29.529 36.5354 29.982C36.2059 30.435 35.7941 30.7645 35.2587 31.0528C34.7233 31.3411 34.1467 31.547 33.4878 31.6705C32.8288 31.7941 32.1287 31.8764 31.4286 31.8764C31.1815 31.8764 30.9344 31.8764 30.6049 31.8353C30.2754 31.7941 29.946 31.7941 29.5753 31.7117C29.2046 31.6705 28.8752 31.5882 28.5045 31.4646C28.1339 31.3822 27.8456 31.2587 27.5573 31.094C27.269 30.9292 27.0631 30.7645 26.8571 30.5586C26.6924 30.3526 26.61 30.1055 26.61 29.7761C26.61 29.529 26.6924 29.3642 26.8983 29.1995C27.1043 29.0347 27.3102 28.9524 27.5573 28.9524C27.8868 28.9524 28.0927 29.0347 28.2574 29.1583C28.4221 29.2819 28.5045 29.4466 28.5869 29.6525C28.6281 29.8584 28.7104 30.0232 28.7104 30.2291C28.7516 30.5174 28.834 30.6821 28.9164 30.8057Z" fill="black"/>
<path d="M38.5946 15.6087L40.6538 14.4968V31.6705H38.5946V15.6087ZM40.9009 21.3333C41.0656 21.0862 41.3128 20.8803 41.5599 20.7156C41.807 20.5508 42.0952 20.3861 42.4247 20.3037C42.7542 20.2213 43.0425 20.0978 43.372 20.0566C43.7014 20.0154 43.9897 19.9742 44.3192 19.9742C45.2664 19.9742 46.0489 20.0978 46.6667 20.3037C47.2844 20.5096 47.8198 20.8391 48.1905 21.2098C48.6023 21.5804 48.8906 22.0334 49.0965 22.5277C49.3025 23.0219 49.4672 23.5573 49.5496 24.0926C49.6319 24.6692 49.6731 25.2046 49.7143 25.8224C49.7143 26.399 49.7143 26.9755 49.7143 27.5109V31.6705H47.6551V27.305C47.6551 26.8932 47.6551 26.4813 47.6551 25.9871C47.6551 25.4929 47.6139 24.9987 47.5727 24.4633C47.5315 23.9279 47.408 23.4337 47.2844 22.9395C47.1609 22.4453 46.955 22.0334 46.7079 21.6216C46.4608 21.2509 46.0901 20.9215 45.6783 20.7156C45.2664 20.4685 44.731 20.3449 44.0721 20.3449C43.5367 20.3449 43.1248 20.3861 42.7542 20.4685C42.3835 20.5508 42.0952 20.6332 41.8481 20.7156C41.601 20.7979 41.3951 20.9215 41.2716 21.045C41.1068 21.1686 40.9833 21.2509 40.9009 21.3333Z" fill="black"/>
<path d="M54.3814 19.6036V31.6293H52.3222V20.7155L54.3814 19.6036Z" fill="black"/>
<path d="M51.7577 16.0611C51.4331 16.2318 50.6312 16.3076 50.6312 16.3076V16.611C50.6312 16.611 51.4331 16.6869 51.7577 16.8576C52.0632 17.0282 52.3305 17.2558 52.5215 17.5592C52.7315 17.8625 52.8652 18.2039 52.9606 18.6021C53.0561 19.0003 53.0943 19.3435 53.0943 19.3435H53.3616C53.3616 19.3435 53.4559 18.7991 53.4953 18.6021C53.5907 18.2039 53.7435 17.8625 53.9344 17.5592C54.1254 17.2558 54.3736 17.0282 54.6982 16.8576C55.0228 16.6869 55.8248 16.611 55.8248 16.611V16.3076C55.8248 16.3076 55.0228 16.2318 54.6982 16.0611C54.3927 15.8905 54.1254 15.6629 53.9344 15.3595C53.7244 15.0561 53.5907 14.7148 53.4953 14.3166C53.4515 14.0819 53.3616 13.4839 53.3616 13.4839H53.0943C53.0943 13.4839 53.0055 14.165 52.9606 14.3166C52.8652 14.7148 52.7124 15.0561 52.5215 15.3595C52.3305 15.6629 52.0823 15.8905 51.7577 16.0611Z" fill="black"/>
<path d="M56.8583 25.9459C56.8583 25.1634 56.9819 24.4221 57.229 23.6808C57.4761 22.9395 57.8879 22.3217 58.4233 21.7452C58.9587 21.1686 59.6177 20.7568 60.4002 20.4273C61.1827 20.0978 62.1299 19.9331 63.2007 19.9331C64.2715 19.9331 65.2187 20.0978 66.0012 20.4273C66.7837 20.7568 67.4426 21.2098 67.978 21.7864C68.5134 22.3629 68.8841 22.9807 69.1312 23.722C69.3783 24.4221 69.5018 25.2046 69.5018 25.9459C69.5018 26.7284 69.3783 27.4698 69.1312 28.2111C68.8841 28.9524 68.4722 29.5701 67.9368 30.1467C67.4015 30.7233 66.7425 31.1351 65.96 31.4646C65.1775 31.7941 64.2303 31.9588 63.2007 31.9588C62.1711 31.9588 61.1827 31.7941 60.4002 31.4646C59.6177 31.1351 58.9587 30.6821 58.4233 30.1055C57.8879 29.529 57.5173 28.9112 57.229 28.1699C56.9819 27.4698 56.8583 26.7284 56.8583 25.9459ZM62.1299 20.4273C61.4298 20.4273 60.8532 20.592 60.4002 20.9215C59.9471 21.251 59.5765 21.6628 59.3294 22.157C59.0823 22.6512 58.9587 23.269 58.8764 23.9279C58.8352 24.5869 58.8764 25.287 58.9999 25.9871C59.1235 26.6873 59.3294 27.3462 59.6589 28.0463C59.9471 28.7053 60.3178 29.2819 60.7708 29.8172C61.2238 30.3115 61.7181 30.7645 62.2946 31.0528C62.8712 31.3822 63.489 31.547 64.1891 31.547C64.8892 31.547 65.4246 31.3822 65.8776 31.0528C66.3307 30.7233 66.6601 30.3115 66.9072 29.8172C67.1543 29.323 67.2779 28.7053 67.3603 28.0463C67.4014 27.3874 67.3603 26.6873 67.2367 25.9871C67.1132 25.287 66.8661 24.6281 66.5778 23.9279C66.2895 23.269 65.9188 22.6924 65.4658 22.157C65.0128 21.6628 64.5186 21.2098 63.942 20.9215C63.3654 20.6332 62.83 20.4273 62.1299 20.4273Z" fill="black"/>
<path d="M71.2684 20.7155L73.3276 19.6036V31.6293H71.2684V20.7155ZM73.5336 21.3333C73.6983 21.0862 73.9454 20.8803 74.1925 20.7155C74.4396 20.5508 74.7279 20.3861 75.0574 20.3037C75.3868 20.2213 75.6751 20.0978 76.0046 20.0566C76.3341 20.0154 76.6224 19.9742 76.9518 19.9742C77.8991 19.9742 78.6816 20.0978 79.2993 20.3037C79.9171 20.5096 80.4525 20.8391 80.8231 21.2098C81.235 21.5804 81.5233 22.0334 81.7292 22.5276C81.9351 23.0219 82.0998 23.5572 82.1822 24.0926C82.2646 24.6692 82.3058 25.2046 82.3469 25.8224C82.3469 26.3989 82.3469 26.9755 82.3469 27.5109V31.6705H80.2877V27.305C80.2877 26.8932 80.2877 26.4813 80.2877 25.9871C80.2877 25.4929 80.2466 24.9987 80.2054 24.4633C80.1642 23.9279 80.0406 23.4337 79.9171 22.9395C79.7935 22.4453 79.5876 22.0334 79.3405 21.6216C79.0934 21.2509 78.7227 20.9215 78.3109 20.7155C77.8991 20.4684 77.3637 20.3449 76.7047 20.3449C76.1693 20.3449 75.7575 20.3861 75.3868 20.4684C75.0162 20.5508 74.7279 20.6332 74.4808 20.7155C74.2337 20.7979 74.0278 20.9215 73.9042 21.045C73.7395 21.1686 73.6159 21.2509 73.5336 21.3333Z" fill="black"/>
<path d="M26.4813 0.864929C28.1287 0.864929 29.5701 1.11203 30.8057 1.56506C32.0412 2.05927 33.0708 2.67703 33.8945 3.45952C34.7181 4.24202 35.3359 5.10689 35.7477 6.13649C36.1596 7.1249 36.3655 8.1545 36.3655 9.22529C36.3655 10.2549 36.1596 11.2845 35.7477 12.2729C35.3359 13.2613 34.7181 14.1674 33.8945 14.9499C33.0708 15.7324 32.0412 16.3501 30.8057 16.8443C29.5701 17.3385 28.1287 17.5856 26.4813 17.5856C24.834 17.5856 23.3925 17.3385 22.157 16.8443C20.9215 16.3501 19.8919 15.7324 19.0682 14.9499C18.2445 14.1674 17.6268 13.2613 17.2149 12.2729C16.8031 11.2845 16.5972 10.2549 16.5972 9.22529C16.5972 8.1545 16.8031 7.16609 17.2149 6.13649C17.6268 5.14807 18.2445 4.24202 19.0682 3.45952C19.8919 2.67703 20.9215 2.05927 22.157 1.56506C23.3925 1.11203 24.834 0.864929 26.4813 0.864929ZM27.7169 17.0503C28.9524 17.0503 30.0232 16.8443 30.888 16.3913C31.7529 15.9383 32.453 15.3617 32.9884 14.6204C33.5238 13.8791 33.8533 13.0554 34.018 12.1082C34.1827 11.1609 34.1827 10.2137 34.0592 9.22529C33.8945 8.23687 33.6062 7.28964 33.112 6.34241C32.6178 5.39517 32.0412 4.57149 31.2999 3.83018C30.5586 3.08887 29.6937 2.51229 28.6641 2.05927C27.6345 1.60624 26.5225 1.40032 25.287 1.40032C24.0103 1.40032 22.9395 1.60624 22.0746 2.05927C21.2098 2.51229 20.5097 3.08887 20.0154 3.83018C19.48 4.57149 19.1506 5.39517 18.9858 6.34241C18.8211 7.28964 18.8211 8.23687 18.9447 9.22529C19.1094 10.2137 19.3977 11.1609 19.8507 12.1082C20.3037 13.0554 20.9215 13.8791 21.6628 14.6204C22.4041 15.3617 23.3102 15.9383 24.2986 16.3913C25.3282 16.8032 26.4813 17.0503 27.7169 17.0503Z" fill="black"/>
<path d="M38.5946 4.73618L40.6538 3.62421V10.4608C40.695 11.1609 40.8185 11.861 41.0245 12.4788C41.2304 13.0965 41.5187 13.6731 41.9305 14.1261C42.3012 14.5792 42.7542 14.991 43.3308 15.2381C43.8662 15.5264 44.4839 15.6499 45.1841 15.6499C46.0489 15.6499 46.7079 15.3617 47.2433 14.8263C47.7786 14.2909 48.1081 13.5907 48.314 12.7671C48.52 11.9434 48.5611 11.0373 48.4788 10.0901C48.3964 9.14287 48.1493 8.23682 47.7786 7.41314C47.408 6.58946 46.9138 5.88933 46.296 5.35394C45.6783 4.81854 44.9369 4.53026 44.1133 4.53026C43.825 4.53026 43.4955 4.57144 43.2072 4.69499C42.9189 4.81854 42.6306 4.9421 42.3424 5.10683C42.0541 5.27157 41.807 5.47749 41.601 5.68341C41.3539 5.88933 41.1892 6.13643 41.0656 6.34235C41.3951 5.64222 41.9305 5.06565 42.6306 4.61262C43.372 4.1596 44.1545 3.95368 44.9781 3.95368C46.0077 3.95368 46.8726 4.11842 47.6139 4.44789C48.3552 4.77736 48.9318 5.23038 49.426 5.80696C49.879 6.38354 50.2497 7.0013 50.4556 7.74261C50.6615 8.48392 50.7851 9.18405 50.7851 9.96655C50.7851 10.749 50.6615 11.4492 50.4556 12.1905C50.2497 12.8906 49.879 13.5496 49.426 14.1261C48.973 14.7027 48.3552 15.1557 47.6139 15.4852C46.8726 15.8147 46.0077 16.0206 45.0193 16.0206C43.9485 16.0206 43.0425 15.8559 42.3424 15.5676C41.6422 15.2793 41.1068 14.8675 40.695 14.3732V21.4157H38.6358V4.73618H38.5946Z" fill="black"/>
<path d="M55.5954 7.90735C55.5954 8.68984 55.7189 9.47234 55.966 10.296C56.2131 11.1197 56.5838 11.8198 57.0368 12.52C57.4898 13.1789 58.0664 13.7143 58.7254 14.1261C59.3843 14.538 60.1256 14.7439 60.9081 14.7439C61.6494 14.7439 62.3084 14.5792 62.8849 14.2909C63.4615 13.9614 63.9557 13.5907 64.3676 13.1789C64.7794 12.7671 65.1089 12.314 65.3148 11.9022C65.5619 11.4904 65.6855 11.1609 65.6855 10.955C65.6443 11.4904 65.4384 12.0669 65.1089 12.6023C64.7794 13.1377 64.3676 13.6319 63.8322 14.085C63.2968 14.538 62.7202 14.8675 62.0201 15.1557C61.3199 15.4028 60.5786 15.5676 59.7961 15.5676C58.7254 15.5676 57.7781 15.4028 56.9956 15.0734C56.2131 14.7439 55.5542 14.2909 55.0188 13.7143C54.4834 13.1377 54.1127 12.52 53.8245 11.7786C53.5773 11.0785 53.4538 10.296 53.4538 9.55471C53.4538 8.52511 53.6185 7.66024 53.948 6.91893C54.2775 6.17762 54.7305 5.55986 55.2659 5.06565C55.8013 4.57144 56.419 4.20078 57.1192 3.99486C57.8193 3.74776 58.5194 3.62421 59.2196 3.62421C59.755 3.62421 60.2903 3.70657 60.7846 3.87131C61.3199 4.03605 61.773 4.28315 62.226 4.61262C62.679 4.9421 63.0497 5.31275 63.3792 5.72459C63.7086 6.17762 63.9557 6.63064 64.1616 7.16603C64.244 7.41314 64.2028 7.61906 64.0793 7.78379C63.9557 7.94853 63.7498 8.0309 63.4615 8.0309H55.5954V7.90735ZM58.8077 3.91249C58.2723 3.91249 57.8193 3.99486 57.4075 4.20078C56.9956 4.4067 56.6662 4.65381 56.419 4.98328C56.1719 5.31275 55.966 5.72459 55.8013 6.13643C55.6777 6.58946 55.5954 7.04248 55.5542 7.53669H62.3084C62.226 7.2484 62.1024 6.91893 61.9377 6.50709C61.773 6.09525 61.5259 5.68341 61.2376 5.31275C60.9493 4.9421 60.6198 4.61262 60.208 4.32434C59.7961 4.03605 59.3019 3.91249 58.8077 3.91249Z" fill="black"/>
<path d="M66.8037 4.61258L68.8629 3.50061V15.5263H66.8037V4.61258ZM69.11 5.23034C69.2748 4.98324 69.5219 4.77732 69.769 4.61258C70.0161 4.44784 70.3044 4.28311 70.6338 4.20074C70.9633 4.07719 71.2516 3.99482 71.5811 3.95363C71.9105 3.91245 72.1988 3.87127 72.5283 3.87127C73.4755 3.87127 74.258 3.99482 74.8758 4.20074C75.4935 4.40666 76.0289 4.73613 76.3996 5.10679C76.8114 5.47744 77.0997 5.93047 77.3056 6.42468C77.5116 6.91889 77.6763 7.45428 77.7587 7.98967C77.841 8.56625 77.8822 9.10164 77.9234 9.7194C77.9234 10.296 77.9234 10.8726 77.9234 11.4079V15.5675H75.8642V11.202C75.8642 10.7902 75.8642 10.3783 75.8642 9.84295C75.8642 9.34874 75.823 8.85454 75.7818 8.31914C75.7406 7.78375 75.6171 7.28954 75.4935 6.79533C75.37 6.30112 75.1641 5.88928 74.917 5.47744C74.6699 5.10679 74.2992 4.77732 73.8874 4.53021C73.4755 4.28311 72.9401 4.15956 72.2812 4.15956C71.7458 4.15956 71.334 4.20074 70.9633 4.28311C70.5926 4.36547 70.3044 4.44784 70.0573 4.53021C69.8101 4.61258 69.6042 4.73613 69.4807 4.85968C69.3159 5.02442 69.1924 5.14797 69.11 5.23034Z" fill="black"/>
</g>
<defs>
<filter id="filter0_d_1040_1206" x="0" y="0" width="86.085" height="40" filterUnits="userSpaceOnUse" color-interpolation-filters="sRGB">
<feFlood flood-opacity="0" result="BackgroundImageFix"/>
<feColorMatrix in="SourceAlpha" type="matrix" values="0 0 0 0 0 0 0 0 0 0 0 0 0 0 0 0 0 0 127 0" result="hardAlpha"/>
<feOffset dy="4"/>
<feGaussianBlur stdDeviation="2"/>
<feComposite in2="hardAlpha" operator="out"/>
<feColorMatrix type="matrix" values="0 0 0 0 0 0 0 0 0 0 0 0 0 0 0 0 0 0 0.25 0"/>
<feBlend mode="normal" in2="BackgroundImageFix" result="effect1_dropShadow_1040_1206"/>
<feBlend mode="normal" in="SourceGraphic" in2="effect1_dropShadow_1040_1206" result="shape"/>
</filter>
<clipPath id="clip0_1040_1206">
<rect width="78.0849" height="32" fill="white" transform="translate(4)"/>
</clipPath>
</defs>
</svg>
